<?xml version="1.0" encoding="UTF-8"?>
<svg id="Capa_1" xmlns="http://www.w3.org/2000/svg" version="1.1" viewBox="0 0 741 200">
  <!-- Generator: Adobe Illustrator 29.2.1, SVG Export Plug-In . SVG Version: 2.1.0 Build 116)  -->
  <defs>
    <style>
      .st0 {
        fill: #fff;
      }

      .st1 {
        fill: #f39313;
      }
    </style>
  </defs>
  <path class="st1" d="M444.1,159.8c0-1.1-.4-2.1-1.2-2.8-.8-.7-1.7-1.1-2.9-1.1-4.8,0-10.6,3.9-17.5,11.6l1.8-2.7c2.5-3.8,3.8-6.3,3.8-7.7s-.3-1.3-1-1.3c-3.1,0-5.3.8-6.6,2.5-.7.9-1.6,2.3-2.7,4.2-.5.9-2.1,3.6-4.8,8.1-2.7,4.5-4.6,7.8-5.9,10-.2.4-.4.7-.6,1,0,0,0,0,0,0-1.5,1-2.9,1.7-4.3,2.3s-3.2,1.1-5.4,1.6c-2.2.5-4.3.8-6.5.8s-3.7-.5-4.6-1.5c-.9-1-1.4-2.3-1.4-3.7s.4-3.8,1.3-5.7c3.1.8,6,1.2,8.6,1.2s5.6-.5,8-1.5c3.2-1.3,5.8-3.7,7.4-6.6,1.5-2.8,2.4-7.2.1-10.4-1.6-2.4-5.9-5.5-15.8-.2-2.8,1.5-5.4,3.5-7.9,6.2h0c-2.5,2.4-4.6,5.2-6.2,8.4-1,2.1-1.7,4.1-2.1,6.2-.4.4-.8.7-1.2,1-.4.4-1.4,1-2.9,2-1.5,1-2.9,1.7-4.3,2.3-1.4.6-3.2,1.1-5.4,1.6-2.2.5-4.3.8-6.5.8s-3.7-.5-4.6-1.5c-.9-1-1.4-2.3-1.4-3.7,0-3.5,1.4-6.9,4.3-10.2,1.3-1.5,2.7-2.9,4.2-4.1,1.5-1.2,3.2-2.4,5-3.5,1.8-1.1,3.5-1.7,5.1-1.7s.5.2.5.6-.4,1.2-1.3,2.4c-.9,1.2-1.3,2-1.3,2.5,0,1.8.9,2.7,2.8,2.7s3.2-1.1,4.7-3.3c1.5-2.2,2.3-4.1,2.3-5.6s-.6-2.8-1.9-3.7c-1.2-.9-2.6-1.3-4.2-1.3-3.2,0-6.5.8-9.8,2.3-3.3,1.5-6.2,3.5-8.7,5.9-2.5,2.4-4.6,5.2-6.1,8.4-1.6,3.2-2.4,6.4-2.4,9.6s1.2,5.8,3.6,7.8c2.4,2,5.2,3,8.2,3s6.7-.8,11-2.4c2.2-.8,4.2-1.7,6.1-2.8,1.6-.9,2.9-1.9,4-3.1.5,2.1,1.6,3.8,3.4,5.2,2.4,2,5.2,3,8.2,3s6.7-.8,11-2.4c.8-.3,1.6-.6,2.4-1,0,.2.1.3.3.4.2.2.8.5,1.9.8,1,.4,1.9.6,2.5.6s1.4-.6,2.3-1.9c3.1-4.2,6-7.7,8.6-10.6,2.7-2.9,5.9-6.2,9.6-9.9,3.8-3.7,6.1-5.6,7.1-5.6h0c-2.1,2.6-3.2,4.9-3.2,6.9s.3,1.7.8,2.3c.5.7,1.2,1,2.1,1s1.7-.5,2.5-1.4c1.4-1.8,2.8-4.1,4.4-6.7,1.6-2.7,2.4-4.5,2.4-5.7M397,163.6c4.4-2.4,7-2.5,7.4-1.8.4.6.3,2.2-.5,3.7-.8,1.6-2.4,2.9-4.2,3.6-2.7,1.1-6,1.3-10.1.6,2.4-2.7,4.8-4.7,7.4-6.1M511.9,178.9c-.1-.8-.4-1.3-1-1.3s-.6,0-.8.2c-.2.1-.7.7-1.6,1.7-.9,1-1.8,1.9-2.7,2.9-.9.9-2,1.8-3.2,2.7-1.2.8-2.2,1.2-3.1,1.2s-1.3-.8-1.3-2.4,0-.9.1-1.2c.4-2.3,1.4-5.2,2.9-8.5,1.5-3.3,2.9-6,4.1-8.2,1.2-2.2,2.1-4.1,2.7-5.6.6-1.5.9-2.6.9-3.3s-.2-1.1-.6-1.4c-.4-.3-1-.5-1.8-.5s-1.5.2-2.2.6c-.7.4-1.4,1-2,1.7-.6.7-1.1,1.5-1.5,2.4-.4.9-.7,1.8-.9,2.8-.2,1-.3,2-.3,3,0,1.1.1,2.1.4,3.1.3,1,.7,1.9,1.2,2.8.5.9,1.1,1.7,1.8,2.4.7.7,1.5,1.3,2.4,1.8.9.5,1.9.7,2.9.7s1.8-.3,2.5-.9c.7-.6,1.1-1.4,1.1-2.4s-.3-2.1-.9-3.2c-.6-1.1-1.4-2.2-2.4-3.2-1-.9-2.1-1.7-3.3-2.3-1.2-.6-2.5-1-3.8-1.2-1.3-.2-2.6-.3-3.9-.3s-2.6.1-3.9.3c-1.3.2-2.6.6-3.8,1.2-1.2.6-2.3,1.4-3.3,2.3-1,.9-1.8,2-2.4,3.2-.6,1.1-.9,2.3-.9,3.2s.4,1.8,1.1,2.4c.7.6,1.6.9,2.5.9s1.7-.2,2.6-.7c.9-.5,1.7-1.1,2.4-1.8.7-.7,1.3-1.5,1.8-2.4.5-.9.9-1.8,1.2-2.8.3-1,.4-2,.4-3.1s-.1-2-.3-3c-.2-1-.5-1.9-.9-2.8-.4-.9-.9-1.7-1.5-2.4-.6-.7-1.3-1.3-2-1.7-.7-.4-1.4-.6-2.2-.6s-1.4.2-1.8.5c-.4.3-.6.7-.6,1.4s.3,1.8.9,3.3c.6,1.5,1.5,3.4,2.7,5.6,1.2,2.2,2.6,4.9,4.1,8.2,1.5,3.3,2.5,6.2,2.9,8.5.1.3.1.6.1,1.2,0,1.6-.8,2.4-1.3,2.4s-1.9-.4-3.1-1.2c-1.2-.9-2.3-1.8-3.2-2.7-.9-1-1.8-1.9-2.7-2.9-.9-1-1.4-1.6-1.6-1.7-.2-.1-.5-.2-.8-.2s-.9.5-1,1.3"/>
  <path class="st0" d="M663.6,66.6v-1.4h-8.1s-1.4,0-1.4,0v6.6c-1.9-2-4.1-3.7-6.5-5-3.7-1.9-7.7-2.8-12-2.8-8.4,0-15.5,3.1-21.1,9.1-5.6,6-8.4,13.6-8.4,22.5s2.8,16.3,8.2,22.3c5.5,6,12.5,9.1,20.7,9.1s8.7-1,12.5-3c2.6-1.3,4.8-3,6.7-5v5.1s0,1.4,0,1.4h9.5v-58.9ZM635.4,73.6c4.9,0,9.3,2.1,13,6.3,3.9,4.3,5.8,9.2,5.8,15,0,6.2-1.9,11.5-5.7,15.9-3.7,4.3-8.2,6.5-13.2,6.5-5.3,0-9.7-2-13.5-6.2-3.8-4.1-5.7-9.3-5.7-15.3,0-6.3,1.9-11.7,5.7-16,3.7-4.2,8.3-6.3,13.7-6.3"/>
  <path class="st0" d="M190.6,170.2H34.8c-12.9,0-23.4-10.5-23.4-23.4V30.5c0-12.9,10.5-23.4,23.4-23.4h649.2c12.9,0,23.4,10.5,23.4,23.4v116.3c0,12.9-10.5,23.4-23.4,23.4h-148.9c-2.5,0-4.5-2-4.5-4.5s2-4.5,4.5-4.5h148.9c7.9,0,14.3-6.4,14.3-14.3V30.5c0-7.9-6.4-14.3-14.3-14.3H34.8c-7.9,0-14.3,6.4-14.3,14.3v116.3c0,7.9,6.4,14.3,14.3,14.3h155.8c2.5,0,4.5,2,4.5,4.5s-2,4.5-4.5,4.5"/>
  <path class="st0" d="M711.5,16.2c0-1.2.2-2.4.7-3.5.5-1.1,1.1-2,1.9-2.9.8-.8,1.8-1.5,2.9-1.9,1.1-.5,2.3-.7,3.5-.7s2.4.2,3.5.7c1.1.5,2.1,1.1,2.9,1.9.8.8,1.5,1.8,1.9,2.9.5,1.1.7,2.3.7,3.5s-.2,2.4-.7,3.5c-.5,1.1-1.1,2-1.9,2.9-.8.8-1.8,1.5-2.9,1.9-1.1.5-2.3.7-3.5.7s-2.4-.2-3.5-.7c-1.1-.5-2-1.1-2.9-1.9-.8-.8-1.5-1.8-1.9-2.9-.5-1.1-.7-2.3-.7-3.5M713.1,16.2c0,1,.2,2,.6,2.9.4.9.9,1.7,1.6,2.4.7.7,1.5,1.2,2.4,1.6.9.4,1.9.6,2.9.6s2-.2,2.9-.6c.9-.4,1.7-.9,2.4-1.6.7-.7,1.2-1.5,1.6-2.4.4-.9.6-1.9.6-2.9s-.2-2-.6-2.9c-.4-.9-.9-1.7-1.6-2.4-.7-.7-1.5-1.2-2.4-1.6-.9-.4-1.9-.6-2.9-.6s-2,.2-2.9.6c-.9.4-1.7.9-2.4,1.6-.7.7-1.2,1.5-1.6,2.4-.4.9-.6,1.9-.6,2.9M716.9,11.2h3.8c1.2,0,2.1.3,2.6.8.6.5.8,1.2.8,2.2s-.2,1.5-.7,1.9c-.4.4-1,.7-1.7.8l2.5,4.2h-1.9l-2.4-4h-1.3v4h-1.8v-9.8ZM718.7,15.5h1.3c.3,0,.6,0,.8,0,.3,0,.5,0,.8-.2.2,0,.4-.2.5-.4.1-.2.2-.4.2-.8s0-.6-.2-.8c-.1-.2-.3-.3-.5-.4-.2,0-.5-.1-.8-.2-.3,0-.6,0-.8,0h-1.3v2.7Z"/>
</svg>

