<svg id="Group_155" data-name="Group 155" xmlns="http://www.w3.org/2000/svg" viewBox="0 0 236.09 83.3">
  <defs>
    <style>
      .cls-1 {
        fill: #00bbec;
      }
    </style>
  </defs>
  <path id="Path_45" data-name="Path 45" class="cls-1" d="M82.068,43.8A13.024,13.024,0,0,1,69.137,32.5H60.6a21.553,21.553,0,0,0,42.937,0H95A13.024,13.024,0,0,1,82.068,43.8Z" transform="translate(-22.559 -12.099)"/>
  <path id="Path_46" data-name="Path 46" class="cls-1" d="M25.3,12.241H9.353V0H0V38.417H9.353V20.4H25.3V38.417h9.29V0H25.3Z"/>
  <path id="Path_47" data-name="Path 47" class="cls-1" d="M341.893,44.717c8.412,0,15.5-5.963,15.5-14.94,0-8.914-7.093-14.877-15.5-14.877-8.6,0-15.693,5.963-15.693,14.877C326.2,38.754,333.293,44.717,341.893,44.717Zm0-22.284a7.061,7.061,0,0,1,6.842,7.344,6.918,6.918,0,1,1-13.81,0A7.082,7.082,0,0,1,341.893,22.433Z" transform="translate(-121.434 -5.547)"/>
  <path id="Path_48" data-name="Path 48" class="cls-1" d="M294.374,43.89h8.977V26.5c0-7.093-5.524-11.8-12.429-11.8-4.206,0-6.591.816-8.725,3.076h-7.6V43.827h9.039V30.644c0-5.461,2.323-7.909,5.838-7.909,2.888,0,4.834,2.26,4.834,5.587V43.89Z" transform="translate(-102.225 -5.472)"/>
  <path id="Path_49" data-name="Path 49" class="cls-1" d="M230.689,14.7c-8.412,0-14.689,6.089-14.689,15,0,8.977,6.34,15,13.81,15A12.885,12.885,0,0,0,238.6,41.63v2.26h9.039V17.776h-7.031C238.222,15.83,235.083,14.7,230.689,14.7Zm1.067,22.347c-3.955,0-6.842-2.95-6.842-7.344,0-4.331,2.888-7.344,6.842-7.344a7.121,7.121,0,0,1,6.968,7.344A7.12,7.12,0,0,1,231.756,37.047Z" transform="translate(-80.41 -5.472)"/>
  <path id="Path_50" data-name="Path 50" class="cls-1" d="M162.485,43.89V30.017c0-4.771,2.2-7.156,5.524-7.156,2.636,0,4.771,2.009,4.771,5.273V43.952h8.977V26.187A11.382,11.382,0,0,0,170.206,14.7a12.835,12.835,0,0,0-10.295,4.771,10.456,10.456,0,0,0-9.228-4.771c-3.641,0-6.905.942-8.788,3.076h-7.6V43.827h9.039V30.017c0-4.771,2.134-7.156,5.4-7.156,2.7,0,4.771,2.009,4.771,5.273V43.952h8.977Z" transform="translate(-49.996 -5.472)"/>
  <path id="Path_51" data-name="Path 51" class="cls-1" d="M185.751,87.374c-2.825-1.255-4.017-2.511-4.017-4.143,0-2.26,1.695-3.766,4.331-3.766a7.1,7.1,0,0,1,4.206,1.444l.377.251,1.569-3.013-.314-.188A10.223,10.223,0,0,0,186.19,76.2c-4.457,0-7.972,3.139-7.972,7.156,0,3.2,1.695,5.21,6.152,7.156,3.955,1.758,4.645,2.95,4.645,4.9,0,1.82-1.13,3.955-4.269,3.955a10.278,10.278,0,0,1-5.775-2.134l-.377-.251-1.695,3.076.314.188a12.962,12.962,0,0,0,7.407,2.385c4.52,0,7.972-3.2,7.972-7.533C192.593,91.579,191.024,89.759,185.751,87.374Z" transform="translate(-65.854 -28.367)"/>
  <path id="Path_52" data-name="Path 52" class="cls-1" d="M214.963,88.8c-5.712,0-8.663,4.708-8.663,9.353,0,5.65,3.7,9.165,9.667,9.165a23.6,23.6,0,0,0,5.775-1l.126-.063-.628-3.139-.188.063a15.835,15.835,0,0,1-4.771.942c-3.829,0-5.9-1.632-6.34-4.959h12.806v-.126a8,8,0,0,0,.126-1.695C222.809,92.127,219.733,88.8,214.963,88.8ZM210,96.4c.439-2.888,2.134-4.52,4.771-4.52s4.394,1.695,4.645,4.52Z" transform="translate(-76.799 -33.057)"/>
  <path id="Path_53" data-name="Path 53" class="cls-1" d="M251.524,90.558a8.265,8.265,0,0,0-5.336-1.758c-4.771,0-8.788,4.331-8.788,9.416,0,5.336,3.578,9.1,8.725,9.1a8.775,8.775,0,0,0,5.273-1.632v3.076c0,2.888-1.381,4.206-4.457,4.206a16.509,16.509,0,0,1-4.9-.879l-.188-.063-.5,3.2v.126l.126.063a21.621,21.621,0,0,0,5.9.942c4.959,0,7.6-2.7,7.6-7.909V89.114h-3.453v1.444Zm-.188,11.676a5.918,5.918,0,0,1-4.52,2.072c-3.515,0-5.9-2.448-5.9-6.089,0-3.766,2.323-6.34,5.587-6.34a6.677,6.677,0,0,1,4.834,2.26Z" transform="translate(-88.376 -33.057)"/>
  <path id="Path_54" data-name="Path 54" class="cls-1" d="M284.641,101.855a7.523,7.523,0,0,1-5.085,2.574c-2.385,0-3.515-1.255-3.515-3.955V89.3H272.4v12.052c0,3.829,2.323,6.152,6.215,6.152a10.115,10.115,0,0,0,6.152-2.574v2.26h3.453V89.3h-3.641v12.555Z" transform="translate(-101.406 -33.244)"/>
  <path id="Path_55" data-name="Path 55" class="cls-1" d="M308.453,91.75V89.114H305V107h3.641V94.889a7.016,7.016,0,0,1,5.9-2.574h.188V88.8h-.188A8.116,8.116,0,0,0,308.453,91.75Z" transform="translate(-113.542 -33.057)"/>
  <path id="Path_56" data-name="Path 56" class="cls-1" d="M332.439,88.8c-5.273,0-9.039,3.892-9.039,9.29s3.829,9.29,9.039,9.29,9.039-3.892,9.039-9.29C341.416,92.692,337.65,88.8,332.439,88.8Zm0,15.5c-3.264,0-5.461-2.511-5.461-6.277s2.2-6.277,5.461-6.277,5.4,2.511,5.4,6.277S335.641,104.3,332.439,104.3Z" transform="translate(-120.392 -33.057)"/>
  <path id="Path_57" data-name="Path 57" class="cls-1" d="M363.67,96.27c-1.632-.691-3.076-1.255-3.076-2.448,0-1.318,1-2.072,2.7-2.072a6.507,6.507,0,0,1,3.641,1.444l.126.126,1.632-2.762-.126-.063a10.031,10.031,0,0,0-5.21-1.695c-4.017,0-6.152,2.7-6.152,5.4,0,3.013,2.574,4.08,4.834,5.022,1.82.753,3.327,1.381,3.327,2.762,0,1.507-1,2.323-2.825,2.323a7.074,7.074,0,0,1-4.331-1.946l-.126-.126L356.2,104.87l.126.126a9.776,9.776,0,0,0,6.34,2.323,5.737,5.737,0,0,0,5.963-5.65C368.755,98.4,365.93,97.212,363.67,96.27Z" transform="translate(-132.602 -33.057)"/>
</svg>
